<svg width="292.594" height="253.563" viewBox="0 0 260 225.316" class="css-1j8o68f"><g transform="matrix(.7525 0 0 .7525 92.382 -1.625)" fill="#4ecca3"><path xmlns="http://www.w3.org/2000/svg" d="m6.71 58.47 7.17 1.26a37.15 37.15 0 0 0 3.7 8.93l-4.18 6a5.51 5.51 0 0 0 .6 7.02l4.3 4.3a5.51 5.51 0 0 0 7.06.61l6-4.18a37.14 37.14 0 0 0 8.93 3.7l1.26 7.17A5.51 5.51 0 0 0 47 97.84h6a5.51 5.51 0 0 0 5.43-4.56l1.26-7.17a37.2 37.2 0 0 0 8.93-3.71l6 4.18a5.51 5.51 0 0 0 7.06-.58l4.3-4.3a5.51 5.51 0 0 0 .61-7.06l-4.18-6a37.1 37.1 0 0 0 3.7-8.93l7.17-1.26A5.51 5.51 0 0 0 97.85 53v-6a5.51 5.51 0 0 0-4.56-5.43l-7.17-1.26a37.13 37.13 0 0 0-3.7-8.93l4.18-6a5.51 5.51 0 0 0-.6-7.06L81.68 14a5.51 5.51 0 0 0-7.06-.62l-6 4.18a37.12 37.12 0 0 0-8.93-3.71l-1.22-7.14A5.51 5.51 0 0 0 53 2.16h-6a5.51 5.51 0 0 0-5.43 4.56l-1.26 7.17a37.09 37.09 0 0 0-8.93 3.71l-6-4.18a5.51 5.51 0 0 0-7.06.62L14 18.32a5.51 5.51 0 0 0-.61 7.06l4.18 6a37.17 37.17 0 0 0-3.7 8.93l-7.16 1.22A5.51 5.51 0 0 0 2.15 47v6a5.51 5.51 0 0 0 4.56 5.47zm24.65-27.1a26.35 26.35 0 1 1 0 37.28 26.19 26.19 0 0 1 0-37.28zm17.05 11.25-5.54-10.05a18.84 18.84 0 0 1 24.56 24.57l-10-5.54a7.53 7.53 0 0 0-9-9zm1.59 5a2.41 2.41 0 0 1 1.71 4.12 2.47 2.47 0 0 1-3.42 0A2.42 2.42 0 0 1 50 47.59zm-13.32 15.7a18.86 18.86 0 0 1-4.11-20.45l10 5.54a7.55 7.55 0 0 0 9 9l5.54 10a18.87 18.87 0 0 1-20.43-4.09z"/></g><path d="M36.641 100.121c1.511.756 2.833.945 4.344 1.511.756.378 4.344 1.7 5.1 1.89.944.566 1.7 1.321 1.7 2.266 0 .566-.19 1.133-.567 1.51l-2.456 4.722-7.743 16.621c-.19.378-1.133 3.21-1.511 3.966-.756 2.267-1.511 4.533-1.511 6.989 0 .188-.19.944.378.944 1.322 0 3.021-1.322 3.777-1.889.378-.378 2.644-2.077 3.022-2.644.189 0 .755-.567.944-.756 1.133-1.133 4.722-4.721 5.289-5.099 3.966-4.344 7.743-9.066 9.82-14.543l5.29-13.977s2.077.378 2.644.378c3.021.567 8.31 2.455 8.31 6.233 0 1.133-.378 2.266-.567 3.21l-7.932 22.854 3.4-2.455 7.365-6.422 5.1-5.1c.944-.944 3.966-4.343 4.344-4.721l5.855-7.366h.378c1.51 0 2.644.755 2.644 2.266v.378l-5.1 6.422-5.855 6.421-5.855 5.666-7.177 6.044-7.366 5.478c-.189.189-.378.377-.378.566l-7.554 18.51-7.177 15.298-4.345 8.122-4.155 6.232c-4.533 6.989-10.199 11.522-17.754 14.543-3.4 1.134-6.799 1.89-10.387 1.89-6.422 0-10.955-2.834-10.955-9.633 0-13.41 13.788-26.82 23.231-34.186 1.133-.944 5.1-3.966 5.477-4.155l17.377-11.143 1.133-2.834 3.21-9.632-5.099 4.91c-.189 0-2.078 1.7-2.833 2.267-3.4 2.644-7.744 5.477-12.088 5.477-5.666 0-9.066-5.477-9.066-10.576 0-3.022 2.833-14.166 4.911-16.243l9.066-17.565c.378-.567 1.133-2.456 1.322-2.645zm7.177 53.073h-.189l-2.455 1.511-5.1 3.778-8.688 7.366-7.366 6.988c-.566.566-3.588 3.588-4.344 4.533-3.588 3.588-9.254 11.143-9.254 15.865 0 3.21 3.022 4.91 6.043 4.91 8.31 0 19.832-17.376 22.098-24.364l9.255-20.776c-.189 0-.189.19 0 .19zm92.792-55.15c1.134-2.078 2.645-6.044 5.667-6.044 1.322 0 2.455.755 3.777 1.511 2.267 1.51 6.61 3.589 6.61 7.177 0 1.322-.755 2.455-1.322 3.4l-6.799 14.354-6.988 17.376-2.644 8.122-1.89 6.799c-.377 1.889-.755 4.344-.755 6.61 0 .378 0 1.511.567 1.511 1.7 0 3.589-2.077 4.533-3.022l2.644-2.644c.756-.944 3.4-3.777 3.778-4.155l10.954-13.22 24.365-32.864c.377-.378.755-1.134 1.51-1.134 1.511 0 3.022.756 3.022 2.644v.378l-5.288 7.744-23.042 30.786-8.877 10.199c-.378.189-4.155 4.155-5.477 5.477-2.456 2.456-8.31 7.744-12.088 7.744-9.066 0-11.71-7.933-11.71-15.676 0-6.989 1.888-13.788 4.344-20.398-.19 0-.378.188-.378.188-.567.378-2.455 2.078-2.833 2.456l-8.31 7.177c-.567.378-4.344 3.21-5.478 3.966-3.588 2.644-8.31 5.666-13.032 5.666-6.61 0-9.821-5.288-9.821-11.332 0-4.91 1.7-9.632 3.777-13.976 6.8-14.732 22.854-32.109 40.608-32.109 3.4 0 6.232 1.134 8.688 3.4.378.189 1.7 1.889 1.888 1.889zm-40.607 41.74c0 1.134.945 1.511 1.889 1.511 1.889 0 3.777-1.322 5.288-2.266.756-.567 3.4-2.267 3.589-2.455l7.177-5.667 11.71-11.143L130 110.51c.755-1.51 1.322-3.4 1.322-5.1 0-1.321-.567-1.888-1.889-1.888-2.266 0-4.91 1.322-6.988 2.455-10.388 5.667-20.587 16.81-24.93 27.953-.756 1.7-1.512 3.967-1.512 5.855zm25.498-9.065v-.19.19zm74.85-30.22c1.7-.944 3.777-2.077 5.666-2.077s3.588 1.7 3.588 3.588c0 .189 0 .189-.189.378 0 .567-.377 1.7-.377 1.7l-4.156 13.032c2.267-2.078 4.533-4.722 6.8-6.988 4.533-4.344 12.087-10.766 19.076-10.766 6.232 0 8.499 5.666 8.499 11.143 0 6.233-2.833 12.277-5.666 17.754h.189l.189-.189c8.688-3.777 17.376-9.254 23.42-16.62.755-.756 2.266-2.833 2.455-3.022v-.19l.378-1.321h.188l3.589 2.266v.19c-7.933 11.898-20.776 19.453-33.808 24.93-.189 0-.378.189-.378.189-6.421 9.632-17.187 20.02-29.464 20.02-3.777 0-6.61-2.077-6.421-6.044l-6.422 17.565-4.533 10.01c-.189.567-2.077 4.156-2.833 5.478-.378.378-1.888 3.022-2.266 3.588-5.666 8.689-13.788 17.188-24.931 17.188h-1.511c-3.4-.19-6.044-2.267-6.422-5.855v-1.133c0-5.855 3.211-12.277 6.044-17.377.756-1.133 3.022-5.1 3.4-5.666l4.91-7.177 7.366-9.066 15.866-17.754 13.22-35.13v-.188s3.211-1.89 4.533-2.456zm12.654 35.32c.189 0 1.889-.568 2.266-.568 3.967-6.421 6.8-12.654 9.444-19.264.189-.378 1.133-3.211 1.322-3.778.567-2.077 1.322-4.155 1.322-6.233v-.755a.406.406 0 0 0-.378-.378c-3.21 0-6.421 2.833-8.499 4.722-.567.378-1.889 1.7-2.078 1.889l-5.477 5.666-10.388 12.088-5.855 16.81v.188c3.589-5.477 12.466-8.5 18.32-10.388zm-61.383 60.249c4.533 0 13.22-11.71 14.92-15.299l2.645-5.477 3.21-8.121 5.667-16.432-11.333 12.088c-.566.566-3.588 4.344-4.533 5.477-.377.755-2.833 3.966-3.21 4.722-3.778 5.288-8.5 13.787-8.5 20.587v1.133c0 .567.378 1.322 1.134 1.322zm59.872-55.34v.19h-.189c-.189 0-3.022 1.133-4.155 1.51-.567.378-3.022 1.323-3.778 1.7-1.51.756-5.288 2.645-5.288 4.722 0 1.133 1.511 1.511 2.455 1.511 3.211 0 7.177-4.533 8.688-6.61.19-.19 1.7-1.889 2.078-2.644l.189-.19c.189 0 .189-.188 0-.188zm-16.81 5.856v-.19c-.189 0-.189.19 0 .19zm10.01-29.464v.189c.19 0 .19-.19 0-.19z" fill="#393e46"/><path d="m53.867 216.126-2.98 4.724v4.34H49v-4.297L46 216.126h2.083l1.85 3.086 1.857-3.086h2.077zm6.823 1.656h-3.363v2.058h2.98v1.637h-2.98v2.051h3.363v1.663h-5.258v-9.065h5.258v1.656zm7.487-1.656v1.656h-2.152v7.409h-1.863v-7.41h-2.164v-1.655h6.179zm11.412 9.065-.66-1.87h-3.807l-.659 1.87h-1.926l3.338-9.065h2.302l3.338 9.065h-1.926zm-3.915-3.444h2.703L77.03 217.9zm13.685-5.621h1.876v9.065h-2.177l-4.015-6.48v6.48h-1.876v-9.065h2.152l4.04 6.442v-6.442zm8.529 9.19c-2.666 0-4.636-1.82-4.636-4.661 0-2.848 1.97-4.655 4.636-4.655 2.66 0 4.63 1.807 4.63 4.655 0 2.842-1.97 4.661-4.63 4.661zm0-1.725c1.562 0 2.76-1.098 2.76-2.936 0-1.832-1.198-2.923-2.76-2.923s-2.76 1.091-2.76 2.923c0 1.838 1.198 2.936 2.76 2.936zm11.91-7.465v1.656h-2.152v7.409h-1.863v-7.41h-2.164v-1.655h6.18zm7.431 0h1.882v9.065h-1.882v-3.727h-3.833v3.727h-1.882v-9.065h1.882v3.701h3.833v-3.701zm9.777 1.656h-3.362v2.058h2.98v1.637h-2.98v2.051h3.362v1.663h-5.257v-9.065h5.257v1.656zm7.017 7.409-2.359-3.99h-.546v3.99h-1.882v-9.065h3.288c2.051 0 2.917 1.21 2.917 2.71 0 1.217-.69 2.007-1.92 2.27l2.729 4.085h-2.227zm-2.905-7.504v2.165h1.11c1.005 0 1.412-.427 1.412-1.08 0-.646-.407-1.085-1.411-1.085h-1.11zm14.203-1.561c1.776 0 2.88 1.317 2.88 2.93 0 1.65-1.104 2.885-2.88 2.885h-1.888v3.25h-1.882v-9.065h3.77zm-.313 4.24c.94 0 1.38-.52 1.38-1.336 0-.784-.44-1.33-1.38-1.33h-1.575v2.666h1.575zm11.132 4.825-.658-1.87h-3.808l-.66 1.87h-1.925l3.337-9.065h2.303l3.337 9.065h-1.926zm-3.915-3.444h2.704l-1.348-3.846zm11.51 3.57c-2.667 0-4.637-1.814-4.637-4.662s1.97-4.655 4.636-4.655c2.02 0 3.639 1.035 4.285 2.754l-1.757.64c-.401-1.054-1.361-1.663-2.528-1.663-1.562 0-2.76 1.092-2.76 2.924s1.198 2.93 2.76 2.93c1.167 0 2.127-.615 2.528-1.67l1.757.64c-.646 1.72-2.265 2.761-4.285 2.761zm11.483-.126-2.817-3.852h-.665v3.852h-1.882v-9.065h1.882v3.563h.64l2.842-3.563h2.296L174 220.46l3.62 4.73h-2.403zm10.11 0-.66-1.87h-3.807l-.659 1.87h-1.926l3.338-9.065h2.302l3.338 9.065h-1.926zm-3.915-3.444h2.704l-1.35-3.846zm11.414 3.57c-2.616 0-4.542-1.808-4.542-4.637 0-2.867 1.97-4.68 4.636-4.68 1.75 0 3.2.772 3.99 2.133l-1.65.878c-.477-.928-1.33-1.374-2.34-1.374-1.568 0-2.747 1.08-2.747 3 0 1.85 1.104 3.042 2.816 3.042 1.16 0 2.227-.577 2.485-1.901h-2.478v-1.512h4.26v4.925h-1.481v-1.255c-.584.86-1.562 1.38-2.949 1.38zm11.93-7.535h-3.363v2.058h2.98v1.637h-2.98v2.051h3.362v1.663H199.5v-9.065h5.257v1.656zm7.016 7.409-2.359-3.99h-.546v3.99h-1.882v-9.065h3.288c2.051 0 2.917 1.21 2.917 2.71 0 1.217-.69 2.007-1.92 2.27l2.729 4.085h-2.227zm-2.905-7.504v2.165h1.11c1.005 0 1.412-.427 1.412-1.08 0-.646-.407-1.085-1.411-1.085h-1.11z" fill="#4ecca3"/></svg>
